HIERARCHY
ROOT SpineBase
{
  OFFSET 0.000000 0.000000 0.000000
  CHANNELS 6 Xposition Yposition Zposition Zrotation Xrotation Yrotation
  JOINT SpineMid
  {
    OFFSET 0.000000 32.086949 0.000000
    CHANNELS 3 Zrotation Xrotation Yrotation
    JOINT SpineShoulder
    {
      OFFSET 0.012844 23.775219 -0.763134
      CHANNELS 3 Zrotation Xrotation Yrotation
      JOINT Neck
      {
        OFFSET 0.062956 7.839293 -0.600356
        CHANNELS 3 Zrotation Xrotation Yrotation
        JOINT Head
        {
          OFFSET 3.212266 14.147600 2.682781
          CHANNELS 3 Zrotation Xrotation Yrotation
          End Site
          {
            OFFSET 0 0 0
          }
        }
      }
      JOINT ShoulderLeft
      {
        OFFSET -13.086068 -1.958835 -9.435387
        CHANNELS 3 Zrotation Xrotation Yrotation
        JOINT ElbowLeft
        {
          OFFSET -5.474103 -25.556243 -4.055597
          CHANNELS 3 Zrotation Xrotation Yrotation
          JOINT WristLeft
          {
            OFFSET 2.734652 -22.110245 -3.685269
            CHANNELS 3 Zrotation Xrotation Yrotation
            JOINT HandLeft
            {
              OFFSET 3.024833 -7.704171 0.270986
              CHANNELS 3 Zrotation Xrotation Yrotation
              JOINT HandTipLeft
              {
                OFFSET 1.202626 -5.238849 -0.641188
                CHANNELS 3 Zrotation Xrotation Yrotation
                End Site
                {
                  OFFSET 0 0 0
                }
              }
              JOINT ThumbLeft
              {
                OFFSET -3.927541 0.722000 0.237608
                CHANNELS 3 Zrotation Xrotation Yrotation
                End Site
                {
                  OFFSET 0 0 0
                }
              }
            }
          }
        }
      }
      JOINT ShoulderRight
      {
        OFFSET 15.234200 -4.823471 11.467375
        CHANNELS 3 Zrotation Xrotation Yrotation
        JOINT ElbowRight
        {
          OFFSET 2.102204 -26.707402 2.548964
          CHANNELS 3 Zrotation Xrotation Yrotation
          JOINT WristRight
          {
            OFFSET 2.008218 21.979868 -3.268653
            CHANNELS 3 Zrotation Xrotation Yrotation
            JOINT HandRight
            {
              OFFSET -3.143380 5.298563 -3.117336
              CHANNELS 3 Zrotation Xrotation Yrotation
              JOINT HandTipRight
              {
                OFFSET -1.161230 6.687691 2.052351
                CHANNELS 3 Zrotation Xrotation Yrotation
                End Site
                {
                  OFFSET 0 0 0
                }
              }
              JOINT ThumbRight
              {
                OFFSET -1.737448 -0.278127 -5.190956
                CHANNELS 3 Zrotation Xrotation Yrotation
                End Site
                {
                  OFFSET 0 0 0
                }
              }
            }
          }
        }
      }
    }
  }
  JOINT HipLeft
  {
    OFFSET -5.405167 1.047471 -8.087085
    CHANNELS 3 Zrotation Xrotation Yrotation
    JOINT KneeLeft
    {
      OFFSET -8.626796 -36.233930 1.933781
      CHANNELS 3 Zrotation Xrotation Yrotation
      JOINT AnkleLeft
      {
        OFFSET -5.812242 -34.868859 7.882110
        CHANNELS 3 Zrotation Xrotation Yrotation
        JOINT FootLeft
        {
          OFFSET 1.619397 -8.290749 -8.691952
          CHANNELS 3 Zrotation Xrotation Yrotation
          End Site
          {
            OFFSET 0 0 0
          }
        }
      }
    }
  }
  JOINT HipRight
  {
    OFFSET 6.919219 -0.400761 0.529227
    CHANNELS 3 Zrotation Xrotation Yrotation
    JOINT KneeRight
    {
      OFFSET -2.919366 -36.040998 3.668546
      CHANNELS 3 Zrotation Xrotation Yrotation
      JOINT AnkleRight
      {
        OFFSET -3.975098 -35.016081 8.664804
        CHANNELS 3 Zrotation Xrotation Yrotation
        JOINT FootRight
        {
          OFFSET 4.353911 -7.568244 -7.754733
          CHANNELS 3 Zrotation Xrotation Yrotation
          End Site
          {
            OFFSET 0 0 0
          }
        }
      }
    }
  }
}
MOTION
Frames: 16
Frame Time: 0.033333
-86.553887 79.458326 427.643418 -0.000000 0.000000 -34.958442 0.000000 0.000000 34.958442 -0.000000 0.000000 0.000000 -0.000000 0.000000 0.000000 0.000000 0.000000 0.000000 -0.000000 0.000000 0.000000 -0.000000 0.000000 0.000000 -0.000000 0.000000 0.000000 -0.000000 0.000000 0.000000 0.000000 0.000000 0.000000 0.000000 0.000000 0.000000 -0.000000 0.000000 0.000000 -0.000000 0.000000 0.000000 -0.000000 0.000000 0.000000 -0.000000 0.000000 0.000000 0.000000 0.000000 0.000000 0.000000 0.000000 0.000000 0.000000 0.000000 34.958442 -0.000000 0.000000 0.000000 -0.000000 0.000000 0.000000 0.000000 0.000000 0.000000 0.000000 0.000000 34.958442 -0.000000 0.000000 0.000000 -0.000000 0.000000 0.000000 0.000000 0.000000 0.000000
-86.591291 79.450208 427.640195 0.022203 -0.080308 -34.743360 -0.064012 0.053336 34.743405 -0.000000 0.000000 0.000000 -0.000000 0.000000 0.000000 0.000000 0.000000 0.000000 -0.000000 0.000000 0.000000 -0.000000 0.000000 0.000000 1.075863 -0.941795 -0.321812 -2.861344 -0.363976 0.270946 0.000000 0.000000 0.000000 0.000000 0.000000 0.000000 -0.000000 0.000000 0.000000 -0.000000 0.000000 0.000000 0.311957 1.289081 0.949537 -0.035717 -6.992749 -2.063100 0.000000 0.000000 0.000000 0.000000 0.000000 0.000000 -0.064012 0.053336 34.743405 -0.000000 0.000000 0.000000 -0.000000 0.000000 0.000000 0.000000 0.000000 0.000000 -0.064012 0.053336 34.743405 -0.000000 0.000000 0.000000 -0.000000 0.000000 0.000000 0.000000 0.000000 0.000000
-86.629121 79.444682 427.644527 0.038407 -0.151043 -34.552693 -0.117299 0.102617 34.552849 -0.000000 0.000000 0.000000 -0.000000 0.000000 0.000000 0.000000 0.000000 0.000000 -0.000000 0.000000 0.000000 -0.000000 0.000000 0.000000 2.294265 -2.072005 -0.685567 -5.188932 0.375411 0.809206 0.000000 0.000000 0.000000 0.000000 0.000000 0.000000 -0.000000 0.000000 0.000000 0.825995 -0.415367 0.163801 -0.085660 2.693797 1.618836 -0.521400 -13.099496 -3.911609 0.000000 0.000000 0.000000 0.000000 0.000000 0.000000 -0.117299 0.102617 34.552849 -0.000000 0.000000 0.000000 -0.229016 1.081009 0.449145 0.000000 0.000000 0.000000 -0.117299 0.102617 34.552849 -0.000000 0.000000 0.000000 -0.000000 0.000000 0.000000 0.000000 0.000000 0.000000
-86.667377 79.441746 427.656414 0.048603 -0.212181 -34.386724 -0.159945 0.147651 34.387020 -0.000000 0.000000 0.000000 -0.000000 0.000000 0.000000 0.000000 0.000000 0.000000 -0.000000 0.000000 0.000000 -0.000000 0.000000 0.000000 3.691889 -3.438197 -1.094534 -7.253827 2.011529 1.621486 0.000000 0.000000 0.000000 0.000000 0.000000 0.000000 -0.074951 -0.949715 -0.082470 1.160486 0.464724 0.273853 0.196403 3.439410 2.275447 -1.364925 -17.934001 -5.506389 0.000000 0.000000 0.000000 0.000000 0.000000 0.000000 -0.159945 0.147651 34.387020 -0.000000 0.000000 0.000000 -0.334257 1.464288 0.632612 0.000000 0.000000 0.000000 -0.159945 0.147651 34.387020 -0.000000 0.000000 0.000000 -0.000000 0.000000 0.000000 0.000000 0.000000 0.000000
-86.706059 79.441401 427.675856 0.052787 -0.263702 -34.245693 -0.192032 0.188278 34.246130 -0.000000 0.000000 0.000000 0.015963 0.805699 -0.185837 0.000000 0.000000 0.000000 -0.000000 0.000000 0.000000 -0.000000 0.000000 0.000000 5.317556 -5.104697 -1.550371 -9.261354 4.472124 2.727979 0.000000 0.000000 0.000000 0.000000 0.000000 0.000000 -0.051963 -1.253636 -0.104103 1.303327 0.782257 0.310362 0.690543 3.778264 2.821065 -2.443540 -21.199732 -6.774936 0.000000 0.000000 0.000000 0.000000 0.000000 0.000000 -0.192032 0.188278 34.246130 -0.000000 0.000000 0.000000 -0.432779 1.745186 0.789190 0.000000 0.000000 0.000000 -0.192032 0.188278 34.246130 -0.000000 0.000000 0.000000 -0.000000 0.000000 0.000000 0.000000 0.000000 0.000000
-86.745167 79.443648 427.702852 0.050955 -0.305589 -34.129794 -0.213637 0.224367 34.130348 -0.000000 0.000000 0.000000 0.018707 0.892053 -0.205945 0.000000 0.000000 0.000000 -0.000000 0.000000 0.000000 0.534049 0.615512 -0.015731 6.714991 -7.768852 -1.962384 -11.404734 7.768678 4.175611 0.000000 0.000000 0.000000 0.000000 0.000000 0.000000 -0.005196 -1.552852 -0.122644 1.333160 1.175332 0.323533 1.390390 3.711900 3.256679 -3.623902 -22.696599 -7.625369 0.000000 0.000000 0.000000 0.000000 0.000000 0.000000 -0.213637 0.224367 34.130348 -0.000000 0.000000 0.000000 -0.524313 1.924613 0.919075 0.000000 0.000000 0.000000 -0.740712 0.932472 34.060216 0.040098 -0.881806 0.075762 -0.000000 0.000000 0.000000 0.000000 0.000000 0.000000
-86.795744 79.451488 427.741932 0.022004 -0.337000 -33.979860 -0.206598 0.267154 33.980406 -0.000000 0.000000 0.000000 0.081667 0.902731 -0.220808 0.000000 0.000000 0.000000 -0.000000 0.000000 0.000000 0.585825 0.923196 0.011798 11.669247 -13.832726 -2.952083 -16.602883 17.789361 8.524399 0.000000 0.000000 0.000000 0.000000 0.000000 0.000000 0.145591 -1.979155 -0.139146 1.197386 2.387571 0.256512 3.554338 1.018137 3.473805 -5.244015 -20.191163 -7.600787 0.000000 0.000000 0.000000 0.000000 0.000000 0.000000 -0.206598 0.267154 33.980406 -0.000000 0.000000 0.000000 -0.328459 2.009155 0.729580 0.000000 0.000000 0.000000 -0.809854 1.190632 33.900283 -0.014319 -1.102931 0.087659 -0.682669 -0.987717 0.126937 0.000000 0.000000 0.000000
-86.839802 79.463474 427.786941 -0.005588 -0.343012 -33.895883 -0.186656 0.287833 33.896335 -0.000000 0.000000 0.000000 0.102447 0.831800 -0.208792 0.000000 0.000000 0.000000 -0.335943 -0.864557 0.236102 0.886809 2.254357 -0.174111 16.311991 -17.471666 -2.852539 -22.093392 22.040505 11.273278 0.000000 0.000000 0.000000 0.000000 0.000000 0.000000 0.285298 -2.291150 -0.147122 0.764262 3.693592 0.132901 5.585200 -2.164886 3.488912 -8.032940 -15.849696 -6.430077 0.000000 0.000000 0.000000 0.000000 0.000000 0.000000 -0.186656 0.287833 33.896335 -0.000000 0.000000 0.000000 -0.448707 1.907347 0.836507 0.000000 0.000000 0.000000 -0.806954 1.305222 33.813791 -0.050752 -1.190458 0.090640 -1.378180 -1.838564 0.340247 0.000000 0.000000 0.000000
-86.874255 79.473311 427.832953 -0.011753 -0.356775 -33.885480 -0.189159 0.302730 33.885944 -0.000000 0.000000 0.000000 -0.000000 0.000000 0.000000 0.000000 0.000000 0.000000 -0.277738 -1.126394 0.282918 0.899270 2.745009 -0.209956 17.309369 -19.776307 -3.053307 -23.811870 26.010941 13.295194 0.000000 0.000000 0.000000 0.000000 0.000000 0.000000 0.366969 -2.567040 -0.158467 0.717072 3.531328 0.191695 5.631481 -1.813693 3.402426 -7.835536 -12.774204 -5.805425 0.000000 0.000000 0.000000 0.000000 0.000000 0.000000 -0.189159 0.302730 33.885944 -0.000000 0.000000 0.000000 -0.632480 1.927136 1.033055 0.000000 0.000000 0.000000 -0.761315 1.299433 33.809221 0.533655 -1.733822 0.317340 -2.891891 -2.197464 0.498627 0.000000 0.000000 0.000000
-86.902149 79.480949 427.879690 -0.010251 -0.366924 -33.927969 -0.196294 0.310172 33.928468 -0.000000 0.000000 0.000000 -0.000000 0.000000 0.000000 0.000000 0.000000 0.000000 -0.371919 -1.290004 0.331523 1.114920 2.896581 -0.288383 13.431425 -17.981789 -3.425340 -19.153561 26.393152 11.983045 0.000000 0.000000 0.000000 0.000000 0.000000 0.000000 0.385320 -2.665365 -0.163689 0.230373 4.003655 0.116409 5.935050 -3.412755 2.798210 -8.913901 -7.479285 -3.617724 0.000000 0.000000 0.000000 0.000000 0.000000 0.000000 -0.196294 0.310172 33.928468 -0.000000 0.000000 0.000000 -0.859831 1.719908 1.232691 0.000000 0.000000 0.000000 -0.641131 1.074259 33.868170 -0.056440 -0.882322 0.065237 -2.093798 -2.712222 0.554744 0.000000 0.000000 0.000000
-86.916177 79.474977 427.934324 -0.005956 -0.381967 -34.011385 -0.208721 0.319953 34.011948 -0.000000 0.000000 0.000000 -0.000000 0.000000 0.000000 0.000000 0.000000 0.000000 0.069556 -1.876392 0.393128 0.675185 4.166053 -0.265615 10.599675 -17.691768 -3.705205 -17.187252 26.744861 11.959263 0.000000 0.000000 0.000000 0.000000 0.000000 0.000000 0.334290 -2.650586 -0.168621 -0.342452 2.649544 0.184275 4.959564 0.580270 3.166097 -7.571304 -8.921687 -4.320421 0.000000 0.000000 0.000000 0.000000 0.000000 0.000000 -0.208721 0.319953 34.011948 -0.000000 0.000000 0.000000 -1.034701 1.869255 1.444591 0.000000 0.000000 0.000000 -0.208721 0.319953 34.011948 -0.000000 0.000000 0.000000 -0.962268 -1.220078 0.278214 0.000000 0.000000 0.000000
-86.915534 79.469390 427.980710 0.006551 -0.400650 -34.147825 -0.230321 0.327896 34.148507 -0.000000 0.000000 0.000000 -0.000000 0.000000 0.000000 0.000000 0.000000 0.000000 -0.347650 -1.446680 0.361161 1.221114 2.986056 -0.354433 4.972838 -10.347961 -2.650302 -9.642633 17.219833 6.784223 0.000000 0.000000 0.000000 0.000000 0.000000 0.000000 0.217580 -2.454096 -0.167404 -0.404959 1.214547 0.268302 2.771891 4.089572 3.007816 -7.554210 -9.320344 -3.635137 0.000000 0.000000 0.000000 0.000000 0.000000 0.000000 -0.230321 0.327896 34.148507 -0.000000 0.000000 0.000000 -1.233484 1.780650 1.636889 0.000000 0.000000 0.000000 -0.230321 0.327896 34.148507 0.609149 0.622116 0.076955 -0.610020 -0.621262 -0.083569 0.000000 0.000000 0.000000
-86.907214 79.460336 428.015694 0.012190 -0.419566 -34.314838 -0.246597 0.339669 34.315614 -0.000000 0.000000 0.000000 -0.361220 0.828128 -0.116681 0.000000 0.000000 0.000000 -0.446890 -1.384239 0.362427 1.442487 2.779956 -0.398135 0.974994 -6.779802 -1.910473 -4.878050 11.927345 4.378140 0.000000 0.000000 0.000000 0.000000 0.000000 0.000000 0.027100 -2.055984 -0.158502 0.333649 0.674878 0.330777 2.826393 3.918705 3.043642 -9.153007 -7.627525 -3.226080 0.000000 0.000000 0.000000 0.000000 0.000000 0.000000 -0.246597 0.339669 34.315614 -0.000000 0.000000 0.000000 -1.466408 1.569176 1.842054 0.000000 0.000000 0.000000 -0.246597 0.339669 34.315614 0.730703 1.153329 0.042666 -0.083737 -0.471733 -0.316840 0.000000 0.000000 0.000000
-86.923726 79.451427 428.037569 -0.012147 -0.422332 -34.400891 -0.228589 0.355330 34.401555 -0.000000 0.000000 0.000000 -0.576090 0.970662 -0.105983 0.000000 0.000000 0.000000 -0.148441 -1.734803 0.393765 1.314231 3.581298 -0.412364 0.701646 -7.475413 -2.034760 -5.125124 8.714130 3.723909 0.000000 0.000000 0.000000 0.000000 0.000000 0.000000 -0.039785 -1.984650 -0.160457 0.258724 0.472283 0.325071 2.038547 3.781711 2.398675 -9.466075 -8.388717 -2.413578 0.000000 0.000000 0.000000 0.000000 0.000000 0.000000 -0.228589 0.355330 34.401555 -0.000000 0.000000 0.000000 -1.652771 1.625260 2.048876 0.000000 0.000000 0.000000 -0.228589 0.355330 34.401555 0.785935 1.662229 -0.005655 0.309619 -0.442747 -0.411092 0.000000 0.000000 0.000000
-86.933765 79.438826 428.044436 -0.015927 -0.413490 -34.524086 -0.221227 0.349695 34.524704 -0.000000 0.000000 0.000000 -0.977602 1.311935 -0.100900 0.000000 0.000000 0.000000 -0.459548 -1.724204 0.436026 1.933776 3.665454 -0.517148 2.237367 -8.285664 -2.025194 -4.568131 9.816109 3.526669 0.000000 0.000000 0.000000 0.000000 0.000000 0.000000 -0.126085 -1.891585 -0.162777 0.013572 0.445943 0.276216 1.211258 2.055208 0.854768 -9.679946 -6.031522 0.158562 0.000000 0.000000 0.000000 0.000000 0.000000 0.000000 -0.221227 0.349695 34.524704 -0.000000 0.000000 0.000000 -1.772579 1.429016 2.138007 0.000000 0.000000 0.000000 -0.221227 0.349695 34.524704 0.857875 1.894035 -0.017012 0.324075 -0.274784 -0.262689 0.000000 0.000000 0.000000
-86.899324 79.424682 428.065411 -0.000878 -0.388182 -34.704647 -0.220290 0.319623 34.705258 -0.000000 0.000000 0.000000 -1.398144 1.623684 -0.083280 0.000000 0.000000 0.000000 -0.938401 -1.583318 0.475325 2.599881 3.457087 -0.610431 3.629774 -9.676038 -2.285905 -4.342749 12.170534 3.840832 0.000000 0.000000 0.000000 0.000000 0.000000 0.000000 -0.200096 -1.770800 -0.161369 0.630315 0.776394 0.300754 2.099592 2.565167 2.177509 -10.195030 -5.045403 -1.238184 0.000000 0.000000 0.000000 0.000000 0.000000 0.000000 -0.220290 0.319623 34.705258 -0.000000 0.000000 0.000000 -1.753952 1.417545 2.116207 0.000000 0.000000 0.000000 -0.220290 0.319623 34.705258 0.977987 1.912052 0.008654 -0.224626 -0.339998 0.103877 0.000000 0.000000 0.000000
